{
	"patcher" : 	{
		"fileversion" : 1,
		"appversion" : 		{
			"major" : 8,
			"minor" : 5,
			"revision" : 3,
			"architecture" : "x64",
			"modernui" : 1
		}
,
		"classnamespace" : "box",
		"rect" : [ 41.0, 84.0, 1468.0, 705.0 ],
		"bglocked" : 0,
		"openinpresentation" : 0,
		"default_fontsize" : 12.0,
		"default_fontface" : 0,
		"default_fontname" : "Arial",
		"gridonopen" : 1,
		"gridsize" : [ 15.0, 15.0 ],
		"gridsnaponopen" : 1,
		"objectsnaponopen" : 1,
		"statusbarvisible" : 2,
		"toolbarvisible" : 1,
		"lefttoolbarpinned" : 0,
		"toptoolbarpinned" : 0,
		"righttoolbarpinned" : 0,
		"bottomtoolbarpinned" : 0,
		"toolbars_unpinned_last_save" : 0,
		"tallnewobj" : 0,
		"boxanimatetime" : 200,
		"enablehscroll" : 1,
		"enablevscroll" : 1,
		"devicewidth" : 0.0,
		"description" : "",
		"digest" : "",
		"tags" : "",
		"style" : "",
		"subpatcher_template" : "",
		"assistshowspatchername" : 0,
		"boxes" : [ 			{
				"box" : 				{
					"id" : "obj-34",
					"maxclass" : "message",
					"numinlets" : 2,
					"numoutlets" : 1,
					"outlettype" : [ "" ],
					"patching_rect" : [ 1054.0, 378.0, 29.5, 22.0 ],
					"text" : "0"
				}

			}
, 			{
				"box" : 				{
					"id" : "obj-32",
					"maxclass" : "button",
					"numinlets" : 1,
					"numoutlets" : 1,
					"outlettype" : [ "bang" ],
					"parameter_enable" : 0,
					"patching_rect" : [ 992.0, 375.0, 24.0, 24.0 ]
				}

			}
, 			{
				"box" : 				{
					"id" : "obj-29",
					"maxclass" : "number",
					"numinlets" : 1,
					"numoutlets" : 2,
					"outlettype" : [ "", "bang" ],
					"parameter_enable" : 0,
					"patching_rect" : [ 977.0, 490.0, 50.0, 22.0 ]
				}

			}
, 			{
				"box" : 				{
					"id" : "obj-25",
					"maxclass" : "newobj",
					"numinlets" : 5,
					"numoutlets" : 4,
					"outlettype" : [ "int", "", "", "int" ],
					"patching_rect" : [ 977.0, 443.0, 61.0, 22.0 ],
					"text" : "counter"
				}

			}
, 			{
				"box" : 				{
					"id" : "obj-24",
					"maxclass" : "newobj",
					"numinlets" : 1,
					"numoutlets" : 0,
					"patching_rect" : [ 873.0, 594.0, 53.0, 22.0 ],
					"text" : "s eavib2"
				}

			}
, 			{
				"box" : 				{
					"id" : "obj-23",
					"maxclass" : "newobj",
					"numinlets" : 1,
					"numoutlets" : 0,
					"patching_rect" : [ 797.0, 594.0, 53.0, 22.0 ],
					"text" : "s eavib1"
				}

			}
, 			{
				"box" : 				{
					"id" : "obj-13",
					"maxclass" : "button",
					"numinlets" : 1,
					"numoutlets" : 1,
					"outlettype" : [ "bang" ],
					"parameter_enable" : 0,
					"patching_rect" : [ 873.0, 553.0, 24.0, 24.0 ]
				}

			}
, 			{
				"box" : 				{
					"id" : "obj-14",
					"maxclass" : "newobj",
					"numinlets" : 1,
					"numoutlets" : 2,
					"outlettype" : [ "bang", "bang" ],
					"patching_rect" : [ 873.0, 515.0, 56.0, 22.0 ],
					"text" : "TogEdge"
				}

			}
, 			{
				"box" : 				{
					"id" : "obj-17",
					"maxclass" : "toggle",
					"numinlets" : 1,
					"numoutlets" : 1,
					"outlettype" : [ "int" ],
					"parameter_enable" : 0,
					"patching_rect" : [ 873.0, 474.0, 24.0, 24.0 ]
				}

			}
, 			{
				"box" : 				{
					"id" : "obj-10",
					"maxclass" : "newobj",
					"numinlets" : 4,
					"numoutlets" : 4,
					"outlettype" : [ "bang", "bang", "bang", "" ],
					"patching_rect" : [ 797.0, 389.021952308171421, 70.0, 22.0 ],
					"text" : "select 1 2 3"
				}

			}
, 			{
				"box" : 				{
					"args" : [ 4 ],
					"bgmode" : 0,
					"border" : 1,
					"clickthrough" : 0,
					"enablehscroll" : 0,
					"enablevscroll" : 0,
					"id" : "obj-7",
					"lockeddragscroll" : 0,
					"lockedsize" : 0,
					"maxclass" : "bpatcher",
					"name" : "bbdmi.tab.maxpat",
					"numinlets" : 2,
					"numoutlets" : 1,
					"offset" : [ 0.0, 0.0 ],
					"outlettype" : [ "int" ],
					"patching_rect" : [ 468.0, 428.0, 199.0, 161.0 ],
					"presentation" : 1,
					"presentation_rect" : [ 862.0, 189.0, 199.0, 161.0 ],
					"varname" : "bbdmi.tab[1]",
					"viewvisibility" : 1
				}

			}
, 			{
				"box" : 				{
					"args" : [ 4 ],
					"bgmode" : 0,
					"border" : 1,
					"clickthrough" : 0,
					"enablehscroll" : 0,
					"enablevscroll" : 0,
					"id" : "obj-59",
					"lockeddragscroll" : 0,
					"lockedsize" : 0,
					"maxclass" : "bpatcher",
					"name" : "bbdmi.tab.maxpat",
					"numinlets" : 2,
					"numoutlets" : 1,
					"offset" : [ 0.0, 0.0 ],
					"outlettype" : [ "int" ],
					"patching_rect" : [ 558.0, 18.0, 199.0, 161.0 ],
					"presentation" : 1,
					"presentation_rect" : [ 847.0, 174.0, 199.0, 161.0 ],
					"varname" : "bbdmi.tab",
					"viewvisibility" : 1
				}

			}
, 			{
				"box" : 				{
					"id" : "obj-15",
					"maxclass" : "toggle",
					"numinlets" : 1,
					"numoutlets" : 1,
					"outlettype" : [ "int" ],
					"parameter_enable" : 0,
					"patching_rect" : [ 276.0, 234.0, 24.0, 24.0 ]
				}

			}
, 			{
				"box" : 				{
					"id" : "obj-11",
					"maxclass" : "message",
					"numinlets" : 2,
					"numoutlets" : 1,
					"outlettype" : [ "" ],
					"patching_rect" : [ 276.0, 275.0, 59.0, 22.0 ],
					"text" : "freeze $1"
				}

			}
, 			{
				"box" : 				{
					"id" : "obj-18",
					"maxclass" : "button",
					"numinlets" : 1,
					"numoutlets" : 1,
					"outlettype" : [ "bang" ],
					"parameter_enable" : 0,
					"patching_rect" : [ 797.0, 553.0, 24.0, 24.0 ]
				}

			}
, 			{
				"box" : 				{
					"id" : "obj-16",
					"maxclass" : "newobj",
					"numinlets" : 1,
					"numoutlets" : 2,
					"outlettype" : [ "bang", "bang" ],
					"patching_rect" : [ 797.0, 515.0, 56.0, 22.0 ],
					"text" : "TogEdge"
				}

			}
, 			{
				"box" : 				{
					"id" : "obj-12",
					"maxclass" : "toggle",
					"numinlets" : 1,
					"numoutlets" : 1,
					"outlettype" : [ "int" ],
					"parameter_enable" : 0,
					"patching_rect" : [ 797.0, 474.0, 24.0, 24.0 ]
				}

			}
, 			{
				"box" : 				{
					"args" : [ 2, 1 ],
					"bgmode" : 0,
					"border" : 1,
					"clickthrough" : 0,
					"enablehscroll" : 0,
					"enablevscroll" : 0,
					"id" : "obj-8",
					"lockeddragscroll" : 0,
					"lockedsize" : 0,
					"maxclass" : "bpatcher",
					"name" : "bbdmi.classify.maxpat",
					"numinlets" : 3,
					"numoutlets" : 2,
					"offset" : [ 0.0, 0.0 ],
					"outlettype" : [ "", "" ],
					"patching_rect" : [ 468.0, 210.771952308171535, 199.0, 200.249999999999829 ],
					"varname" : "bbdmi.classify",
					"viewvisibility" : 1
				}

			}
, 			{
				"box" : 				{
					"args" : [ 4 ],
					"bgmode" : 0,
					"border" : 1,
					"clickthrough" : 0,
					"enablehscroll" : 0,
					"enablevscroll" : 0,
					"id" : "obj-28",
					"lockeddragscroll" : 0,
					"lockedsize" : 0,
					"maxclass" : "bpatcher",
					"name" : "bbdmi.list2~.maxpat",
					"numinlets" : 2,
					"numoutlets" : 2,
					"offset" : [ 0.0, 0.0 ],
					"outlettype" : [ "multichannelsignal", "" ],
					"patching_rect" : [ 55.0, 114.549999999999955, 199.0, 35.0 ],
					"varname" : "bbdmi.list2~",
					"viewvisibility" : 1
				}

			}
, 			{
				"box" : 				{
					"annotation" : "",
					"args" : [ 4 ],
					"bgmode" : 0,
					"border" : 1,
					"clickthrough" : 0,
					"enablehscroll" : 0,
					"enablevscroll" : 0,
					"hint" : "",
					"id" : "obj-30",
					"lockeddragscroll" : 0,
					"lockedsize" : 0,
					"maxclass" : "bpatcher",
					"name" : "bbdmi.eavi.maxpat",
					"numinlets" : 1,
					"numoutlets" : 2,
					"offset" : [ 0.0, 0.0 ],
					"outlettype" : [ "", "" ],
					"patching_rect" : [ 55.0, 9.0, 199.0, 88.0 ],
					"varname" : "bbdmi.eavi",
					"viewvisibility" : 1
				}

			}
, 			{
				"box" : 				{
					"args" : [ 4, "@winsize", 0.5, "@clock", 10 ],
					"bgmode" : 0,
					"border" : 1,
					"clickthrough" : 0,
					"enablehscroll" : 0,
					"enablevscroll" : 0,
					"id" : "obj-2",
					"lockeddragscroll" : 0,
					"lockedsize" : 0,
					"maxclass" : "bpatcher",
					"name" : "bbdmi.rms~.maxpat",
					"numinlets" : 2,
					"numoutlets" : 1,
					"offset" : [ 0.0, 0.0 ],
					"outlettype" : [ "" ],
					"patching_rect" : [ 55.0, 199.198476154085711, 197.0, 87.0 ],
					"presentation" : 1,
					"presentation_rect" : [ 20.0, 245.682142857142708, 198.0, 87.0 ],
					"varname" : "bbdmi.rms~",
					"viewvisibility" : 1
				}

			}
, 			{
				"box" : 				{
					"bgcolor" : [ 0.168627450980392, 0.168627450980392, 0.168627450980392, 1.0 ],
					"candycane" : 8,
					"contdata" : 1,
					"id" : "obj-20",
					"maxclass" : "multislider",
					"numinlets" : 1,
					"numoutlets" : 2,
					"outlettype" : [ "", "" ],
					"parameter_enable" : 0,
					"patching_rect" : [ 55.0, 493.595428462257132, 198.0, 163.0 ],
					"presentation" : 1,
					"presentation_rect" : [ 38.480896085500717, 219.0, 194.0, 200.0 ],
					"setminmax" : [ 0.0, 1.0 ],
					"setstyle" : 3,
					"signed" : 1,
					"size" : 2,
					"slidercolor" : [ 0.850980392156863, 0.784313725490196, 0.207843137254902, 1.0 ],
					"spacing" : 2
				}

			}
, 			{
				"box" : 				{
					"annotation" : "",
					"args" : [ 4, "@mode", 1, "@time", 5 ],
					"bgmode" : 0,
					"border" : 1,
					"clickthrough" : 0,
					"enablehscroll" : 0,
					"enablevscroll" : 0,
					"hint" : "",
					"id" : "obj-3",
					"lockeddragscroll" : 0,
					"lockedsize" : 0,
					"maxclass" : "bpatcher",
					"name" : "bbdmi.calibrate.maxpat",
					"numinlets" : 2,
					"numoutlets" : 1,
					"offset" : [ 0.0, 0.0 ],
					"outlettype" : [ "" ],
					"patching_rect" : [ 55.0, 309.396952308171421, 198.0, 161.0 ],
					"varname" : "bbdmi.calibrate",
					"viewvisibility" : 1
				}

			}
 ],
		"lines" : [ 			{
				"patchline" : 				{
					"destination" : [ "obj-12", 0 ],
					"order" : 1,
					"source" : [ "obj-10", 1 ]
				}

			}
, 			{
				"patchline" : 				{
					"destination" : [ "obj-17", 0 ],
					"source" : [ "obj-10", 2 ]
				}

			}
, 			{
				"patchline" : 				{
					"destination" : [ "obj-25", 0 ],
					"order" : 0,
					"source" : [ "obj-10", 1 ]
				}

			}
, 			{
				"patchline" : 				{
					"destination" : [ "obj-3", 1 ],
					"source" : [ "obj-11", 0 ]
				}

			}
, 			{
				"patchline" : 				{
					"destination" : [ "obj-16", 0 ],
					"source" : [ "obj-12", 0 ]
				}

			}
, 			{
				"patchline" : 				{
					"destination" : [ "obj-24", 0 ],
					"source" : [ "obj-13", 0 ]
				}

			}
, 			{
				"patchline" : 				{
					"destination" : [ "obj-13", 0 ],
					"source" : [ "obj-14", 0 ]
				}

			}
, 			{
				"patchline" : 				{
					"destination" : [ "obj-11", 0 ],
					"source" : [ "obj-15", 0 ]
				}

			}
, 			{
				"patchline" : 				{
					"destination" : [ "obj-18", 0 ],
					"source" : [ "obj-16", 0 ]
				}

			}
, 			{
				"patchline" : 				{
					"destination" : [ "obj-14", 0 ],
					"source" : [ "obj-17", 0 ]
				}

			}
, 			{
				"patchline" : 				{
					"destination" : [ "obj-23", 0 ],
					"source" : [ "obj-18", 0 ]
				}

			}
, 			{
				"patchline" : 				{
					"destination" : [ "obj-3", 0 ],
					"midpoints" : [ 64.5, 289.0, 64.5, 289.0 ],
					"source" : [ "obj-2", 0 ]
				}

			}
, 			{
				"patchline" : 				{
					"destination" : [ "obj-29", 0 ],
					"source" : [ "obj-25", 0 ]
				}

			}
, 			{
				"patchline" : 				{
					"destination" : [ "obj-2", 0 ],
					"source" : [ "obj-28", 0 ]
				}

			}
, 			{
				"patchline" : 				{
					"destination" : [ "obj-20", 0 ],
					"midpoints" : [ 64.5, 472.0, 64.5, 472.0 ],
					"order" : 0,
					"source" : [ "obj-3", 0 ]
				}

			}
, 			{
				"patchline" : 				{
					"destination" : [ "obj-8", 0 ],
					"order" : 1,
					"source" : [ "obj-3", 0 ]
				}

			}
, 			{
				"patchline" : 				{
					"destination" : [ "obj-28", 0 ],
					"midpoints" : [ 64.5, 99.0, 64.5, 99.0 ],
					"source" : [ "obj-30", 0 ]
				}

			}
, 			{
				"patchline" : 				{
					"destination" : [ "obj-25", 0 ],
					"source" : [ "obj-32", 0 ]
				}

			}
, 			{
				"patchline" : 				{
					"destination" : [ "obj-25", 3 ],
					"source" : [ "obj-34", 0 ]
				}

			}
, 			{
				"patchline" : 				{
					"destination" : [ "obj-8", 1 ],
					"source" : [ "obj-59", 0 ]
				}

			}
, 			{
				"patchline" : 				{
					"destination" : [ "obj-10", 0 ],
					"midpoints" : [ 477.5, 622.0, 752.0, 622.0, 752.0, 356.0, 806.5, 356.0 ],
					"source" : [ "obj-7", 0 ]
				}

			}
, 			{
				"patchline" : 				{
					"destination" : [ "obj-7", 0 ],
					"source" : [ "obj-8", 0 ]
				}

			}
 ],
		"parameters" : 		{
			"obj-3::obj-107::obj-33" : [ "tab[2]", "tab[1]", 0 ],
			"obj-3::obj-123::obj-33" : [ "tab[18]", "tab[1]", 0 ],
			"obj-3::obj-34::obj-33" : [ "tab[3]", "tab[1]", 0 ],
			"obj-3::obj-36::obj-33" : [ "tab[4]", "tab[1]", 0 ],
			"obj-3::obj-40::obj-33" : [ "tab[5]", "tab[1]", 0 ],
			"obj-3::obj-41::obj-33" : [ "tab[6]", "tab[1]", 0 ],
			"obj-3::obj-42::obj-33" : [ "tab[7]", "tab[1]", 0 ],
			"obj-3::obj-43::obj-33" : [ "tab[8]", "tab[1]", 0 ],
			"obj-3::obj-44::obj-33" : [ "tab[9]", "tab[1]", 0 ],
			"obj-3::obj-45::obj-33" : [ "tab[10]", "tab[1]", 0 ],
			"obj-3::obj-46::obj-33" : [ "tab[11]", "tab[1]", 0 ],
			"obj-3::obj-47::obj-33" : [ "tab[12]", "tab[1]", 0 ],
			"obj-3::obj-48::obj-33" : [ "tab[13]", "tab[1]", 0 ],
			"obj-3::obj-49::obj-33" : [ "tab[14]", "tab[1]", 0 ],
			"obj-3::obj-50::obj-33" : [ "tab[15]", "tab[1]", 0 ],
			"obj-3::obj-74::obj-33" : [ "tab[1]", "tab[1]", 0 ],
			"obj-8::obj-25" : [ "live.numbox[2]", "live.numbox", 0 ],
			"obj-8::obj-96" : [ "live.numbox[6]", "live.numbox", 0 ],
			"parameterbanks" : 			{
				"0" : 				{
					"index" : 0,
					"name" : "",
					"parameters" : [ "-", "-", "-", "-", "-", "-", "-", "-" ]
				}

			}
,
			"inherited_shortname" : 1
		}
,
		"dependency_cache" : [ 			{
				"name" : "bbdmi.calibrate.maxpat",
				"bootpath" : "~/Documents/GitHub/bbdmi_main/max/control_processing/calibrate",
				"patcherrelativepath" : "../../bbdmi_main/max/control_processing/calibrate",
				"type" : "JSON",
				"implicit" : 1
			}
, 			{
				"name" : "bbdmi.classify.maxpat",
				"bootpath" : "~/Documents/GitHub/bbdmi_main/max/control_processing/classify",
				"patcherrelativepath" : "../../bbdmi_main/max/control_processing/classify",
				"type" : "JSON",
				"implicit" : 1
			}
, 			{
				"name" : "bbdmi.eavi.maxpat",
				"bootpath" : "~/Documents/GitHub/bbdmi_main/max/input/eavi",
				"patcherrelativepath" : "../../bbdmi_main/max/input/eavi",
				"type" : "JSON",
				"implicit" : 1
			}
, 			{
				"name" : "bbdmi.list2~.maxpat",
				"bootpath" : "~/Documents/GitHub/bbdmi_main/max/utilities/list2~",
				"patcherrelativepath" : "../../bbdmi_main/max/utilities/list2~",
				"type" : "JSON",
				"implicit" : 1
			}
, 			{
				"name" : "bbdmi.rms~.maxpat",
				"bootpath" : "~/Documents/GitHub/bbdmi_main/max/feature_extraction/rms~",
				"patcherrelativepath" : "../../bbdmi_main/max/feature_extraction/rms~",
				"type" : "JSON",
				"implicit" : 1
			}
, 			{
				"name" : "bbdmi.tab.maxpat",
				"bootpath" : "~/Documents/GitHub/bbdmi_main/max/utilities/tab",
				"patcherrelativepath" : "../../bbdmi_main/max/utilities/tab",
				"type" : "JSON",
				"implicit" : 1
			}
, 			{
				"name" : "name.js",
				"bootpath" : "~/Documents/GitHub/bbdmi_main/max/source/js",
				"patcherrelativepath" : "../../bbdmi_main/max/source/js",
				"type" : "TEXT",
				"implicit" : 1
			}
, 			{
				"name" : "p.calibrate.maxpat",
				"bootpath" : "~/Documents/GitHub/bbdmi_main/max/control_processing/calibrate",
				"patcherrelativepath" : "../../bbdmi_main/max/control_processing/calibrate",
				"type" : "JSON",
				"implicit" : 1
			}
, 			{
				"name" : "p.exposer.maxpat",
				"bootpath" : "~/Documents/GitHub/bbdmi_main/max/source/patchers",
				"patcherrelativepath" : "../../bbdmi_main/max/source/patchers",
				"type" : "JSON",
				"implicit" : 1
			}
, 			{
				"name" : "rapid.classification.mxe64",
				"type" : "mx64"
			}
 ],
		"autosave" : 0
	}

}
